<svg width="32" height="16" viewBox="0 0 32 16" fill="none" xmlns="http://www.w3.org/2000/svg">
<path d="M14.5 8.125C14.5 7.23438 14.1953 6.4375 13.5859 5.6875C12.9766 4.9375 12.1562 4.35156 11.125 3.90625C10.0938 3.48438 8.96875 3.25 7.75 3.25C6.53125 3.25 5.40625 3.48438 4.375 3.90625C3.34375 4.35156 2.52344 4.9375 1.91406 5.6875C1.30469 6.4375 1 7.23438 1 8.125C1 8.6875 1.11719 9.20312 1.35156 9.69531C1.58594 10.2109 1.9375 10.6562 2.38281 11.0781C2.28906 11.6406 2.125 12.1094 1.9375 12.4609C1.79688 12.6719 1.60938 12.9062 1.32812 13.1406L1.14062 13.3047C1.02344 13.4219 0.976562 13.5156 1 13.5625C1 13.6328 1.04688 13.6797 1.09375 13.7031C1.14062 13.75 1.21094 13.75 1.28125 13.75C2.54688 13.6328 3.64844 13.1875 4.60938 12.4375C5.59375 12.8125 6.625 13 7.75 13C8.96875 13 10.0938 12.7891 11.125 12.3438C12.1562 11.9219 12.9766 11.3359 13.5859 10.5859C14.1953 9.83594 14.5 9.01562 14.5 8.125Z" fill="white"/>
<path d="M25.76 9.89H24.48V12H23.56V9.89H20.19V9.47L23.81 4.9H24.48V9.11H25.76V9.89ZM23.56 7.08L23.65 6.28H23.62L23.25 6.93L21.77 8.72L21.24 9.19L21.99 9.11H23.56V7.08ZM26.9975 11.1C27.1642 11.16 27.3408 11.2067 27.5275 11.24C27.7208 11.2733 27.9642 11.29 28.2575 11.29C28.7575 11.29 29.1675 11.17 29.4875 10.93C29.8075 10.6833 29.9675 10.3233 29.9675 9.85C29.9675 9.39 29.8042 9.04667 29.4775 8.82C29.1575 8.58667 28.7108 8.47 28.1375 8.47L27.2275 8.51V5H30.6975V5.88H28.1075V7.69L28.5775 7.67C28.9375 7.67 29.2608 7.72 29.5475 7.82C29.8342 7.92 30.0775 8.06 30.2775 8.24C30.4842 8.42 30.6408 8.64333 30.7475 8.91C30.8608 9.17 30.9175 9.46667 30.9175 9.8C30.9175 10.18 30.8475 10.5167 30.7075 10.81C30.5675 11.0967 30.3742 11.34 30.1275 11.54C29.8875 11.7333 29.6042 11.88 29.2775 11.98C28.9508 12.08 28.6008 12.13 28.2275 12.13C27.9075 12.13 27.6275 12.11 27.3875 12.07C27.1542 12.03 26.9375 11.9733 26.7375 11.9L26.9975 11.1Z" fill="white"/>
</svg>
