<svg width="31" height="16" viewBox="0 0 31 16" fill="none" xmlns="http://www.w3.org/2000/svg">
<path d="M20.13 11.16H21.65V6.51L21.77 5.9L21.33 6.4L20.14 7.2L19.72 6.61L22.13 4.88H22.57V11.16H24.07V12H20.13V11.16ZM29.8275 6.64C29.8275 6.98 29.7575 7.33 29.6175 7.69C29.4775 8.04333 29.2942 8.39667 29.0675 8.75C28.8475 9.10333 28.5975 9.45333 28.3175 9.8C28.0442 10.1467 27.7675 10.48 27.4875 10.8L26.9475 11.23V11.27L27.6675 11.16H29.9975V12H25.5875V11.64C25.7475 11.4867 25.9375 11.3 26.1575 11.08C26.3842 10.8533 26.6175 10.6067 26.8575 10.34C27.1042 10.0667 27.3442 9.78 27.5775 9.48C27.8175 9.18 28.0308 8.87667 28.2175 8.57C28.4042 8.25667 28.5542 7.95 28.6675 7.65C28.7875 7.35 28.8475 7.06667 28.8475 6.8C28.8475 6.48667 28.7508 6.22667 28.5575 6.02C28.3642 5.81333 28.0675 5.71 27.6675 5.71C27.3875 5.71 27.1175 5.76333 26.8575 5.87C26.5975 5.97667 26.3742 6.10667 26.1875 6.26L25.7775 5.59C26.0508 5.37 26.3608 5.19667 26.7075 5.07C27.0542 4.93667 27.4375 4.87 27.8575 4.87C28.4775 4.87 28.9608 5.03333 29.3075 5.36C29.6542 5.68 29.8275 6.10667 29.8275 6.64Z" fill="white"/>
<g clip-path="url(#clip0)">
<path d="M13.9815 5.21175C13.9534 5.13706 13.8952 5.07756 13.8212 5.04767L12.5772 4.54578C12.4999 4.14389 12.1946 3.82203 11.8018 3.72056L11.7347 2.94753C11.7249 2.83442 11.649 2.73786 11.5414 2.7016C11.4338 2.66536 11.3149 2.6963 11.2387 2.78041L10.9194 3.13258L10.722 2.44195C10.688 2.3229 10.5812 2.23933 10.4574 2.23505C10.3329 2.23064 10.2212 2.30669 10.179 2.42314L8.70458 6.4907C8.70458 6.4907 3.24308 6.74564 3.24079 6.74577C2.12087 6.81307 1.05987 6.21383 0.538488 5.21898C0.465225 5.07931 0.292648 5.02537 0.153006 5.0986C0.0133016 5.17183 -0.0405751 5.34441 0.0326248 5.48408C0.498731 6.37346 1.32427 6.99916 2.27085 7.22698C2.17259 7.34149 1.96146 7.62531 1.838 8.07152C1.70375 8.5567 1.65537 9.33014 2.14898 10.3122L1.34838 11.3997C1.30161 11.4632 1.28321 11.5432 1.29752 11.6208L1.64988 13.5314C1.67485 13.6669 1.79298 13.7652 1.93071 13.7652H2.28964C2.37432 13.7652 2.45463 13.7276 2.50892 13.6626C2.56318 13.5976 2.58577 13.5118 2.5706 13.4285L2.34748 12.2029L4.70819 10.4307C4.71234 10.4276 4.70419 10.4341 4.70819 10.4307C4.93391 10.2411 5.09776 10.0323 5.21497 9.81763C6.44534 10.0336 8.12913 10.3259 9.20835 10.4997L9.68384 13.524C9.70571 13.6629 9.82536 13.7652 9.96595 13.7652H10.2613C10.419 13.7652 10.5469 13.6374 10.5469 13.4797V10.4097C10.8149 10.2266 10.9108 9.92043 10.9743 9.62056C10.9763 9.61113 11.6096 6.68825 11.6096 6.68825C11.729 6.70814 11.8495 6.71858 11.9709 6.71858C12.8072 6.71858 13.573 6.22896 13.9695 5.4408C14.0053 5.36954 14.0097 5.28647 13.9815 5.21175Z" fill="white"/>
</g>
<defs>
<clipPath id="clip0">
<rect width="14" height="14" fill="white" transform="translate(0 1)"/>
</clipPath>
</defs>
</svg>
