<svg width="43" height="16" viewBox="0 0 43 16" fill="none" xmlns="http://www.w3.org/2000/svg">
<path d="M13.3359 7.9375C13.4297 8.125 13.5 8.3125 13.5 8.5C13.5 8.71094 13.4297 8.89844 13.3359 9.0625C12.6562 10.2109 11.7422 11.125 10.5938 11.7812C9.42188 12.4844 8.13281 12.8125 6.75 12.8125C5.34375 12.8125 4.07812 12.4844 2.90625 11.7812C1.73438 11.125 0.820312 10.2109 0.164062 9.0625C0.046875 8.89844 0 8.71094 0 8.5C0 8.3125 0.046875 8.125 0.164062 7.9375C0.820312 6.8125 1.73438 5.89844 2.90625 5.21875C4.07812 4.53906 5.34375 4.1875 6.75 4.1875C8.13281 4.1875 9.42188 4.53906 10.5938 5.21875C11.7422 5.89844 12.6562 6.8125 13.3359 7.9375ZM6.75 11.6875C7.3125 11.6875 7.85156 11.5469 8.34375 11.2656C8.8125 10.9844 9.21094 10.5859 9.49219 10.0938C9.77344 9.625 9.9375 9.08594 9.9375 8.5C9.9375 7.9375 9.77344 7.39844 9.49219 6.90625C9.21094 6.4375 8.8125 6.03906 8.34375 5.75781C7.85156 5.47656 7.3125 5.3125 6.75 5.3125C6.16406 5.3125 5.625 5.47656 5.15625 5.75781C4.66406 6.03906 4.26562 6.4375 3.98438 6.90625C3.70312 7.39844 3.5625 7.9375 3.5625 8.5C3.5625 9.08594 3.70312 9.625 3.98438 10.0938C4.26562 10.5859 4.66406 10.9844 5.15625 11.2656C5.625 11.5469 6.16406 11.6875 6.75 11.6875ZM9.1875 8.5C9.1875 7.84375 8.92969 7.25781 8.46094 6.78906C7.99219 6.32031 7.40625 6.0625 6.75 6.0625C6.32812 6.0625 5.95312 6.15625 5.60156 6.34375C5.88281 6.34375 6.11719 6.46094 6.30469 6.64844C6.49219 6.83594 6.60938 7.07031 6.60938 7.35156C6.60938 7.63281 6.49219 7.89062 6.30469 8.07812C6.11719 8.26562 5.88281 8.35938 5.60156 8.35938C5.32031 8.35938 5.0625 8.26562 4.875 8.07812C4.6875 7.89062 4.59375 7.63281 4.59375 7.35156C4.40625 7.72656 4.3125 8.10156 4.3125 8.5C4.3125 9.17969 4.54688 9.76562 5.01562 10.2344C5.48438 10.7031 6.07031 10.9375 6.75 10.9375C7.40625 10.9375 7.99219 10.7031 8.46094 10.2344C8.92969 9.76562 9.1875 9.17969 9.1875 8.5Z" fill="white"/>
<path d="M24.76 9.89H23.48V12H22.56V9.89H19.19V9.47L22.81 4.9H23.48V9.11H24.76V9.89ZM22.56 7.08L22.65 6.28H22.62L22.25 6.93L20.77 8.72L20.24 9.19L20.99 9.11H22.56V7.08ZM25.9975 11.1C26.1642 11.16 26.3408 11.2067 26.5275 11.24C26.7208 11.2733 26.9642 11.29 27.2575 11.29C27.7575 11.29 28.1675 11.17 28.4875 10.93C28.8075 10.6833 28.9675 10.3233 28.9675 9.85C28.9675 9.39 28.8042 9.04667 28.4775 8.82C28.1575 8.58667 27.7108 8.47 27.1375 8.47L26.2275 8.51V5H29.6975V5.88H27.1075V7.69L27.5775 7.67C27.9375 7.67 28.2608 7.72 28.5475 7.82C28.8342 7.92 29.0775 8.06 29.2775 8.24C29.4842 8.42 29.6408 8.64333 29.7475 8.91C29.8608 9.17 29.9175 9.46667 29.9175 9.8C29.9175 10.18 29.8475 10.5167 29.7075 10.81C29.5675 11.0967 29.3742 11.34 29.1275 11.54C28.8875 11.7333 28.6042 11.88 28.2775 11.98C27.9508 12.08 27.6008 12.13 27.2275 12.13C26.9075 12.13 26.6275 12.11 26.3875 12.07C26.1542 12.03 25.9375 11.9733 25.7375 11.9L25.9975 11.1ZM36.275 9.88C36.275 10.1733 36.2217 10.4567 36.115 10.73C36.0083 10.9967 35.855 11.2367 35.655 11.45C35.455 11.6567 35.2083 11.8233 34.915 11.95C34.6217 12.07 34.2883 12.13 33.915 12.13C33.555 12.13 33.225 12.0733 32.925 11.96C32.6317 11.8467 32.3783 11.6833 32.165 11.47C31.9517 11.2567 31.785 10.9933 31.665 10.68C31.5517 10.3667 31.495 10.01 31.495 9.61C31.495 8.97 31.5883 8.37667 31.775 7.83C31.9617 7.27667 32.2183 6.79 32.545 6.37C32.8783 5.95 33.2683 5.61 33.715 5.35C34.1683 5.09 34.6617 4.93 35.195 4.87L35.385 5.63C34.985 5.68333 34.6183 5.80333 34.285 5.99C33.9583 6.17 33.6683 6.39333 33.415 6.66C33.1683 6.92 32.965 7.21333 32.805 7.54C32.645 7.86 32.5383 8.18667 32.485 8.52C32.545 8.43333 32.6217 8.34667 32.715 8.26C32.815 8.17333 32.9317 8.09667 33.065 8.03C33.1983 7.96333 33.3483 7.91 33.515 7.87C33.6817 7.83 33.8617 7.81 34.055 7.81C34.395 7.81 34.7017 7.86 34.975 7.96C35.255 8.05333 35.4883 8.19 35.675 8.37C35.8683 8.55 36.015 8.76667 36.115 9.02C36.2217 9.27333 36.275 9.56 36.275 9.88ZM35.325 9.95C35.325 9.51 35.2017 9.17667 34.955 8.95C34.715 8.72333 34.3517 8.61 33.865 8.61C33.5117 8.61 33.2083 8.68667 32.955 8.84C32.7083 8.99333 32.535 9.16667 32.435 9.36C32.4217 9.44667 32.415 9.51667 32.415 9.57C32.415 9.61667 32.415 9.67333 32.415 9.74C32.415 9.93333 32.445 10.1267 32.505 10.32C32.565 10.5067 32.6583 10.6767 32.785 10.83C32.9117 10.9767 33.0683 11.0967 33.255 11.19C33.4483 11.2833 33.6717 11.33 33.925 11.33C34.1317 11.33 34.3183 11.2933 34.485 11.22C34.6583 11.1467 34.805 11.0467 34.925 10.92C35.0517 10.7933 35.1483 10.6467 35.215 10.48C35.2883 10.3133 35.325 10.1367 35.325 9.95ZM37.9625 12L40.6625 6.27L41.1425 5.78L40.4925 5.88H37.4325V5H42.0725V5.29L38.9225 12H37.9625Z" fill="white"/>
</svg>
