<svg width="64" height="64" viewBox="0 0 64 64" fill="none" xmlns="http://www.w3.org/2000/svg">
<rect width="64" height="64" fill="#333333"/>
<path d="M8.8 18.2278H4V4H16.8V9.33543H8.8V18.2278Z" fill="#F7AB32"/>
<path d="M16.8801 55.6646V61H4.08008L4.08008 46.7722H8.88008V55.6646H16.8801Z" fill="#F7AB32"/>
<path d="M55.2 46.6838H60V60.9116H47.2V55.5762H55.2V46.6838Z" fill="#F7AB32"/>
<path d="M47.2 9.33543V4L60 4V18.2278H55.2V9.33543H47.2Z" fill="#F7AB32"/>
<path d="M48.6859 13H40.695L40.0061 13.6804V52.3253L40.695 52.9376H48.6859L49.3059 52.3253V13.6804L48.6859 13Z" fill="white"/>
<path d="M24.2998 28.5804V13.6804L23.6109 13H15.6889L15 13.6804V52.3253L15.6889 52.9376H23.6109L24.2998 52.3253V37.3572H36.4928V28.5804H24.2998Z" fill="white"/>
</svg>
