<svg width="370" height="81" viewBox="0 0 370 81" fill="none" xmlns="http://www.w3.org/2000/svg">
<path d="M8.21613 20.9688H0V1H21.9097V8.4883H8.21613V20.9688Z" fill="#F7AB32"/>
<path d="M22.0468 73.4556V81H0.299194L0.299194 60.8816H8.45453L8.45453 73.4556H22.0468Z" fill="#F7AB32"/>
<path d="M361.675 60.9064H369.891V80.8752H347.981V73.3869H361.675V60.9064Z" fill="#F7AB32"/>
<path d="M348.061 8.46897V0.924561L369.808 0.924561V21.043H361.653V8.46897H348.061Z" fill="#F7AB32"/>
<path d="M203.873 35.9001L204.562 35.2197H210.762L211.45 35.9001L211.864 36.9887L202.151 60.3253L201.531 60.9376H193.471L203.873 35.9001Z" fill="white"/>
<path d="M214.206 40.4585L218.89 52.7052H218.752L222.404 21.6804L223.023 21H231.014L231.634 21.6804L226.812 60.3253L226.123 60.9376H214.413L213.793 60.3253L210.073 50.4599L214.206 40.4585Z" fill="white"/>
<path d="M183.62 21H191.611L192.231 21.6804L195.262 47.5344L189.613 60.9376H188.442L187.822 60.3253L183 21.6804L183.62 21Z" fill="white"/>
<path d="M244.331 21L243.711 21.6804L232 60.3253L232.689 60.9376H240.818L241.438 60.3253L252.597 21H244.331Z" fill="white"/>
<path d="M260.106 21.6804L259.486 21H256.179L253.768 29.7767L257.902 44.8129H249.497L247.086 53.0453H260.175L262.173 60.3253L262.793 60.9376H271.197L271.817 60.3253L260.106 21.6804Z" fill="white"/>
<path d="M107 21.6804V60.3253L107.62 60.9376H115.611L116.231 60.3253V21H107.62L107 21.6804Z" fill="white"/>
<path d="M276 21.6804V60.3253L276.62 60.9376H284.611L285.231 60.3253V21H276.62L276 21.6804Z" fill="white"/>
<path d="M123.326 50.4598L129.113 60.3252L130.008 60.9375H139.377L139.859 60.3252L133.728 49.9155C131.868 50.3918 130.077 50.5279 128.493 50.5279H123.326V50.4598Z" fill="white"/>
<path d="M292.326 50.4598L298.113 60.3252L299.008 60.9375H308.377L308.859 60.3252L302.728 49.9155C300.868 50.3918 299.077 50.5279 297.493 50.5279H292.326V50.4598Z" fill="white"/>
<path d="M142.477 34.2673C142.477 27.0554 137.448 21.0681 127.322 21.0681H119.744V29.4366H127.873C131.317 29.4366 133.177 31.6819 133.177 34.2673C133.177 36.8527 131.317 39.1659 127.873 39.1659H119.744V47.4664C119.744 47.4664 125.806 47.4664 128.148 47.4664C130.835 47.4664 133.659 47.1943 136.897 45.0171C140.686 42.4317 142.477 38.6896 142.477 34.2673Z" fill="white"/>
<path d="M311.477 34.2673C311.477 27.0554 306.448 21.0681 296.322 21.0681H288.744V29.4366H296.873C300.317 29.4366 302.177 31.6819 302.177 34.2673C302.177 36.8527 300.317 39.1659 296.873 39.1659H288.744V47.4664C288.744 47.4664 294.806 47.4664 297.148 47.4664C299.835 47.4664 302.659 47.1943 305.897 45.0171C309.686 42.4317 311.477 38.6896 311.477 34.2673Z" fill="white"/>
<path d="M55.6859 21H47.695L47.0061 21.6804V60.3253L47.695 60.9376H55.6859L56.3059 60.3253V21.6804L55.6859 21Z" fill="white"/>
<path d="M31.2998 36.5804V21.6804L30.6109 21H22.6889L22 21.6804V60.3253L22.6889 60.9376H30.6109L31.2998 60.3253V45.3572H43.4928V36.5804H31.2998Z" fill="white"/>
<path d="M329.813 29.7767H347.724L348.344 29.0964V21.6804L347.724 21H329.813V29.7767Z" fill="white"/>
<path d="M329.813 45.153H342.557L343.177 44.5406V37.3968L342.557 36.7844H329.813V45.153Z" fill="white"/>
<path d="M326.3 21H317.689L317 21.6804V60.3253L317.689 60.9376H326.3V21Z" fill="white"/>
<path d="M347.793 52.1609H329.813V60.9376H347.793L348.481 60.3253V52.8413L347.793 52.1609Z" fill="white"/>
<path d="M156.231 21H147.62L147 21.6804V60.3253L147.62 60.9376H156.231V21Z" fill="white"/>
<path d="M163.74 21H159.813V29.3005H163.74C167.666 29.3005 170.353 31.4777 170.353 35.1517V46.854C170.353 50.528 167.666 52.7052 163.74 52.7052H159.813V60.9376H163.74C172.695 60.9376 179.584 56.9234 179.584 47.8065V34.1311C179.584 25.0142 172.695 21 163.74 21Z" fill="white"/>
<path d="M74.3308 21L73.7108 21.6804L62 60.3253L62.6889 60.9376H70.8176L71.4376 60.3253L82.5973 21H74.3308Z" fill="white"/>
<path d="M90.1749 21.6804L89.486 21H86.2483L83.7684 29.7767L87.9016 44.8129H79.4974L77.1552 53.0453H90.1749L92.1726 60.3253L92.7926 60.9376H101.197L101.817 60.3253L90.1749 21.6804Z" fill="white"/>
</svg>
