<svg width="35" height="16" viewBox="0 0 35 16" fill="none" xmlns="http://www.w3.org/2000/svg">
<path d="M22.4 9.88C22.4 10.1733 22.3467 10.4567 22.24 10.73C22.1333 10.9967 21.98 11.2367 21.78 11.45C21.58 11.6567 21.3333 11.8233 21.04 11.95C20.7467 12.07 20.4133 12.13 20.04 12.13C19.68 12.13 19.35 12.0733 19.05 11.96C18.7567 11.8467 18.5033 11.6833 18.29 11.47C18.0767 11.2567 17.91 10.9933 17.79 10.68C17.6767 10.3667 17.62 10.01 17.62 9.61C17.62 8.97 17.7133 8.37667 17.9 7.83C18.0867 7.27667 18.3433 6.79 18.67 6.37C19.0033 5.95 19.3933 5.61 19.84 5.35C20.2933 5.09 20.7867 4.93 21.32 4.87L21.51 5.63C21.11 5.68333 20.7433 5.80333 20.41 5.99C20.0833 6.17 19.7933 6.39333 19.54 6.66C19.2933 6.92 19.09 7.21333 18.93 7.54C18.77 7.86 18.6633 8.18667 18.61 8.52C18.67 8.43333 18.7467 8.34667 18.84 8.26C18.94 8.17333 19.0567 8.09667 19.19 8.03C19.3233 7.96333 19.4733 7.91 19.64 7.87C19.8067 7.83 19.9867 7.81 20.18 7.81C20.52 7.81 20.8267 7.86 21.1 7.96C21.38 8.05333 21.6133 8.19 21.8 8.37C21.9933 8.55 22.14 8.76667 22.24 9.02C22.3467 9.27333 22.4 9.56 22.4 9.88ZM21.45 9.95C21.45 9.51 21.3267 9.17667 21.08 8.95C20.84 8.72333 20.4767 8.61 19.99 8.61C19.6367 8.61 19.3333 8.68667 19.08 8.84C18.8333 8.99333 18.66 9.16667 18.56 9.36C18.5467 9.44667 18.54 9.51667 18.54 9.57C18.54 9.61667 18.54 9.67333 18.54 9.74C18.54 9.93333 18.57 10.1267 18.63 10.32C18.69 10.5067 18.7833 10.6767 18.91 10.83C19.0367 10.9767 19.1933 11.0967 19.38 11.19C19.5733 11.2833 19.7967 11.33 20.05 11.33C20.2567 11.33 20.4433 11.2933 20.61 11.22C20.7833 11.1467 20.93 11.0467 21.05 10.92C21.1767 10.7933 21.2733 10.6467 21.34 10.48C21.4133 10.3133 21.45 10.1367 21.45 9.95ZM24.0875 12L26.7875 6.27L27.2675 5.78L26.6175 5.88H23.5575V5H28.1975V5.29L25.0475 12H24.0875ZM31.045 8.4C30.865 8.3 30.695 8.19667 30.535 8.09C30.3817 7.97667 30.245 7.85 30.125 7.71C30.0117 7.57 29.9217 7.41333 29.855 7.24C29.7883 7.06667 29.755 6.87 29.755 6.65C29.755 6.39667 29.805 6.16333 29.905 5.95C30.005 5.73 30.1483 5.54 30.335 5.38C30.5217 5.22 30.7483 5.09667 31.015 5.01C31.2817 4.91667 31.5817 4.87 31.915 4.87C32.2217 4.87 32.4983 4.91 32.745 4.99C32.9983 5.07 33.2117 5.18333 33.385 5.33C33.565 5.47667 33.7017 5.65 33.795 5.85C33.895 6.04333 33.945 6.25667 33.945 6.49C33.945 6.87 33.8517 7.20333 33.665 7.49C33.4783 7.77667 33.1683 8.05333 32.735 8.32C32.9283 8.42667 33.1083 8.54 33.275 8.66C33.4483 8.77333 33.595 8.90333 33.715 9.05C33.8417 9.19667 33.9383 9.36 34.005 9.54C34.0783 9.72 34.115 9.92333 34.115 10.15C34.115 10.4367 34.0617 10.7 33.955 10.94C33.855 11.18 33.705 11.39 33.505 11.57C33.305 11.7433 33.0583 11.88 32.765 11.98C32.4783 12.08 32.1517 12.13 31.785 12.13C31.4317 12.13 31.1183 12.0833 30.845 11.99C30.5783 11.89 30.3483 11.76 30.155 11.6C29.9683 11.4333 29.825 11.24 29.725 11.02C29.6317 10.7933 29.585 10.5533 29.585 10.3C29.585 9.88 29.705 9.52 29.945 9.22C30.185 8.92 30.5517 8.64667 31.045 8.4ZM31.665 8.71C31.2383 8.92333 30.935 9.16333 30.755 9.43C30.575 9.69 30.485 9.93667 30.485 10.17C30.485 10.3233 30.515 10.47 30.575 10.61C30.635 10.75 30.7217 10.8733 30.835 10.98C30.9483 11.0867 31.0883 11.1733 31.255 11.24C31.4217 11.3 31.615 11.33 31.835 11.33C32.015 11.33 32.1883 11.3067 32.355 11.26C32.5217 11.2067 32.665 11.1333 32.785 11.04C32.9117 10.9467 33.0117 10.83 33.085 10.69C33.1583 10.5433 33.195 10.3767 33.195 10.19C33.195 10.01 33.1517 9.85 33.065 9.71C32.9783 9.56333 32.8617 9.43333 32.715 9.32C32.575 9.2 32.4117 9.09333 32.225 9C32.045 8.9 31.8583 8.80333 31.665 8.71ZM32.115 8.05C32.4217 7.83 32.6517 7.61 32.805 7.39C32.9583 7.17 33.035 6.93333 33.035 6.68C33.035 6.52 33.0017 6.38 32.935 6.26C32.875 6.13333 32.7917 6.02667 32.685 5.94C32.585 5.85333 32.465 5.78667 32.325 5.74C32.185 5.69333 32.0383 5.67 31.885 5.67C31.6917 5.67 31.5217 5.7 31.375 5.76C31.2283 5.81333 31.1017 5.88667 30.995 5.98C30.895 6.06667 30.8183 6.16667 30.765 6.28C30.7117 6.39333 30.685 6.51 30.685 6.63C30.685 6.81 30.725 6.97 30.805 7.11C30.885 7.25 30.9883 7.37667 31.115 7.49C31.2483 7.59667 31.4017 7.69667 31.575 7.79C31.7483 7.87667 31.9283 7.96333 32.115 8.05Z" fill="white"/>
<path d="M12 8.00747L7.01303 2.52832V5.79728H5.95276C2.6651 5.79728 0 8.46759 0 11.7617V13.494L0.470947 12.977C2.07211 11.2192 4.33768 10.2177 6.71292 10.2177H7.01303V13.4866L12 8.00747Z" fill="white"/>
</svg>
